<?xml version="1.0" encoding="utf-8"?>
<!-- Generator: Adobe Illustrator 15.1.0, SVG Export Plug-In . SVG Version: 6.00 Build 0)  -->
<!DOCTYPE svg PUBLIC "-//W3C//DTD SVG 1.0//EN" "http://www.w3.org/TR/2001/REC-SVG-20010904/DTD/svg10.dtd">
<svg version="1.0" xmlns="http://www.w3.org/2000/svg" xmlns:xlink="http://www.w3.org/1999/xlink" x="0px" y="0px"
	 width="841.89px" height="595.275px" viewBox="0 0 841.89 595.275" enable-background="new 0 0 841.89 595.275"
	 xml:space="preserve">
<symbol  id="New_Symbol" viewBox="-138.002 11.366 278.416 161.269">
	<g id="New_Symbol_1_">
		<g>
			<g enable-background="new    ">
				<defs>
					<polygon id="SVGID_1_" enable-background="new    " points="-138.002,91.975 0.794,172.635 140.414,92.025 1.618,11.366 					
						"/>
				</defs>
				<clipPath id="SVGID_2_">
					<use xlink:href="#SVGID_1_"  overflow="visible"/>
				</clipPath>
				<g clip-path="url(#SVGID_2_)">
					<g>
						<g>
							<g>
								<path fill="#FF0000" d="M-83.685,83.896c-7.859,4.538-7.901,11.888-0.092,16.426c7.809,4.538,20.505,4.541,28.364,0.004
									c7.86-4.538,7.901-11.896,0.092-16.434C-63.13,79.354-75.825,79.358-83.685,83.896 M-12.041,43.348
									c-7.853,4.534-7.895,11.892-0.093,16.425c7.809,4.538,20.511,4.538,28.364,0.004c7.859-4.538,7.901-11.896,0.092-16.434
									C8.521,38.81-4.181,38.81-12.041,43.348 M-12.98,84.71c-7.86,4.538-7.9,11.896-0.092,16.434
									c7.809,4.538,20.51,4.538,28.37,0c7.859-4.538,7.895-11.892,0.086-16.43C7.576,80.177-5.121,80.173-12.98,84.71
									 M-13.16,116.663c-7.853,4.534-7.901,11.888-0.093,16.425c7.809,4.538,20.511,4.538,28.364,0.004
									c7.859-4.538,7.901-11.895,0.092-16.433C7.396,112.121-5.3,112.125-13.16,116.663 M58.438,84.306
									c-7.853,4.534-7.895,11.892-0.086,16.429c7.802,4.534,20.504,4.534,28.357,0c7.859-4.538,7.901-11.895,0.099-16.429
									C79,79.768,66.298,79.768,58.438,84.306 M126.045,100.321c-0.537,0.31-1.108,0.608-1.715,0.893L18.422,150.978
									c-9.699,4.556-25.532,4.556-35.186-0.004l-105.342-49.761c-9.647-4.557-10.309-12.463-1.46-17.572l109.095-62.985
									c8.849-5.109,23.282-5.109,32.074,0l108.379,62.983C134.224,88.428,134.085,95.68,126.045,100.321"/>
							</g>
						</g>
					</g>
				</g>
			</g>
		</g>
	</g>
</symbol>
<symbol  id="New_Symbol_1" viewBox="59.17 18.898 229.731 155.373">
	<path fill="none" d="M73.57,48.394c109.534,52.792,109.534,52.792,133.412,105.571c14.316,31.645,45.703,22.123,49.614-0.127
		c4.448-25.307,4.502-30.799,23.949-53.925c20.826-24.767-0.304-50.863-30.147-40.049c-46.828,16.97-46.828,16.97-165.063-36.961
		C52.924,8.119,52.586,38.28,73.57,48.394z"/>
</symbol>
<defs>
	<filter id="Adobe_OpacityMaskFilter" filterUnits="userSpaceOnUse" x="0" y="0" width="841.89" height="595.275">
		<feFlood  style="flood-color:white;flood-opacity:1" result="back"/>
		<feBlend  in="SourceGraphic" in2="back" mode="normal"/>
	</filter>
</defs>
<mask maskUnits="userSpaceOnUse" x="0" y="0" width="841.89" height="595.275" id="Layer_3_1_">
	<g filter="url(#Adobe_OpacityMaskFilter)">
	</g>
</mask>
<g id="Layer_3" mask="url(#Layer_3_1_)">
	<g>
		<defs>
			<path id="SVGID_3_" d="M0,0v595.275h841.89V0H0z M558.216,241.444l-8.739,109.137c-1.026,12.822-9.429,27.47-19.979,34.828
				l-87.165,60.785c-5.915,4.126-13.493,6.398-21.337,6.398c-0.001,0-0.001,0-0.002,0c-7.86-0.001-15.452-2.281-21.375-6.422
				l-88.353-61.76c-10.535-7.363-18.932-22.008-19.964-34.819l-8.722-108.139c-0.679-8.422,2.168-16.761,7.811-22.877
				c5.644-6.117,13.726-9.625,22.176-9.625H528.22c8.447,0,16.53,3.507,22.175,9.621S558.89,233.023,558.216,241.444z"/>
		</defs>
		<clipPath id="SVGID_4_">
			<use xlink:href="#SVGID_3_"  overflow="visible"/>
		</clipPath>
		<g clip-path="url(#SVGID_4_)">
			
				<use xlink:href="#New_Symbol_1"  width="229.731" height="155.373" x="59.17" y="18.898" transform="matrix(1 0 0 1 413.8232 329.6846)" overflow="visible"/>
		</g>
		<g clip-path="url(#SVGID_4_)">
			
				<use xlink:href="#New_Symbol_1"  width="229.731" height="155.373" x="59.17" y="18.898" transform="matrix(-1 0 0 1 413.8232 329.6846)" overflow="visible"/>
		</g>
		<g clip-path="url(#SVGID_4_)">
			
				<use xlink:href="#New_Symbol_1"  width="229.731" height="155.373" x="59.17" y="18.898" transform="matrix(-1 0 0 -1 413.8232 329.6846)" overflow="visible"/>
		</g>
		<g clip-path="url(#SVGID_4_)">
			
				<use xlink:href="#New_Symbol_1"  width="229.731" height="155.373" x="59.17" y="18.898" transform="matrix(1 0 0 -1 413.8232 329.6846)" overflow="visible"/>
		</g>
	</g>
	<g>
		<defs>
			<path id="SVGID_5_" d="M0,0v595.275h841.89V0H0z M558.216,241.444l-8.739,109.137c-1.026,12.822-9.429,27.47-19.979,34.828
				l-87.165,60.785c-5.915,4.126-13.493,6.398-21.337,6.398c-0.001,0-0.001,0-0.002,0c-7.86-0.001-15.452-2.281-21.375-6.422
				l-88.353-61.76c-10.535-7.363-18.932-22.008-19.964-34.819l-8.722-108.139c-0.679-8.422,2.168-16.761,7.811-22.877
				c5.644-6.117,13.726-9.625,22.176-9.625H528.22c8.447,0,16.53,3.507,22.175,9.621S558.89,233.023,558.216,241.444z"/>
		</defs>
		<clipPath id="SVGID_6_">
			<use xlink:href="#SVGID_5_"  overflow="visible"/>
		</clipPath>
		<g clip-path="url(#SVGID_6_)">
			<path fill="#FF0000" d="M487.394,378.078c109.534,52.792,109.534,52.792,133.412,105.571
				c14.316,31.645,45.703,22.123,49.614-0.127c4.448-25.307,4.502-30.799,23.949-53.925c20.826-24.767-0.304-50.863-30.147-40.049
				c-46.828,16.97-46.828,16.97-165.063-36.961C466.747,337.804,466.409,367.965,487.394,378.078z"/>
		</g>
		<g clip-path="url(#SVGID_6_)">
			<path fill="#FF0000" d="M340.253,378.078C230.719,430.87,230.719,430.87,206.841,483.649
				c-14.316,31.645-45.703,22.123-49.614-0.127c-4.448-25.307-4.502-30.799-23.949-53.925
				c-20.826-24.767,0.304-50.863,30.147-40.049c46.828,16.97,46.828,16.97,165.063-36.961
				C360.899,337.804,361.237,367.965,340.253,378.078z"/>
		</g>
		<g clip-path="url(#SVGID_6_)">
			<path fill="#FF0000" d="M340.253,281.291c-109.534-52.792-109.534-52.792-133.412-105.571
				c-14.316-31.645-45.703-22.123-49.614,0.127c-4.448,25.307-4.502,30.799-23.949,53.925
				c-20.826,24.767,0.304,50.863,30.147,40.049c46.828-16.97,46.828-16.97,165.063,36.961
				C360.899,321.565,361.237,291.404,340.253,281.291z"/>
		</g>
		<g clip-path="url(#SVGID_6_)">
			<path fill="#FF0000" d="M487.394,281.291c109.534-52.792,109.534-52.792,133.412-105.571
				c14.316-31.645,45.703-22.123,49.614,0.127c4.448,25.307,4.502,30.799,23.949,53.925c20.826,24.767-0.304,50.863-30.147,40.049
				c-46.828-16.97-46.828-16.97-165.063,36.961C466.747,321.565,466.409,291.404,487.394,281.291z"/>
		</g>
	</g>
	<g>
		<defs>
			<path id="SVGID_7_" d="M0,0v595.275h841.89V0H0z M558.216,241.444l-8.739,109.137c-1.026,12.822-9.429,27.47-19.979,34.828
				l-87.165,60.785c-5.915,4.126-13.493,6.398-21.337,6.398c-0.001,0-0.001,0-0.002,0c-7.86-0.001-15.452-2.281-21.375-6.422
				l-88.353-61.76c-10.535-7.363-18.932-22.008-19.964-34.819l-8.722-108.139c-0.679-8.422,2.168-16.761,7.811-22.877
				c5.644-6.117,13.726-9.625,22.176-9.625H528.22c8.447,0,16.53,3.507,22.175,9.621S558.89,233.023,558.216,241.444z"/>
		</defs>
		<clipPath id="SVGID_8_">
			<use xlink:href="#SVGID_7_"  overflow="visible"/>
		</clipPath>
	</g>
</g>
<g id="Layer_1">
	<g id="Layer_6">
		
			<use xlink:href="#New_Symbol"  width="278.416" height="161.269" x="-138.002" y="11.366" transform="matrix(-0.4 0.6928 0.6928 0.4 420.9434 300.4414)" overflow="visible"/>
		
			<ellipse transform="matrix(0.866 0.5 -0.5 0.866 243.4644 -206.1991)" fill="#FF0000" cx="506.49" cy="351.194" rx="12.745" ry="18.629"/>
		<ellipse fill="#FF0000" cx="511.393" cy="288.449" rx="14.706" ry="22.338"/>
		<ellipse fill="#FF0000" cx="455.51" cy="322.764" rx="17.483" ry="19.607"/>
		<ellipse fill="#FF0000" cx="455.51" cy="388.449" rx="17.483" ry="18.627"/>
	</g>
	<g id="Layer_7">
		
			<use xlink:href="#New_Symbol"  width="278.416" height="161.269" x="-138.002" y="11.366" transform="matrix(-0.4 -0.6928 -0.6928 0.4 420.9443 300.4414)" overflow="visible"/>
		
			<ellipse transform="matrix(0.866 -0.5 0.5 0.866 -120.1595 223.2515)" fill="#FF0000" cx="356.51" cy="335.845" rx="14.705" ry="22.252"/>
	</g>
	<g id="Layer_8">
		
			<use xlink:href="#New_Symbol"  width="278.416" height="161.269" id="XMLID_5_" x="-138.002" y="11.366" transform="matrix(0.8 0 0 -0.8 420.9443 300.4414)" overflow="visible"/>
		<ellipse fill="#FF0000" cx="420.979" cy="200.214" rx="21.786" ry="12.745"/>
		<ellipse fill="#FF0000" cx="420.979" cy="225.96" rx="21.786" ry="13.47"/>
		<ellipse fill="#FF0000" cx="421.979" cy="259.019" rx="21.786" ry="12.745"/>
	</g>
</g>
<g id="Layer_5">
	<g opacity="0.9">
		<path fill="#FF0000" d="M309.867,520.641c0,0.822-0.329,1.531-0.986,2.127c-0.658,0.596-1.397,0.895-2.219,0.895
			c-1.151,0-2.035-0.555-2.651-1.664l-18.062-32.18l-7.336,7.213v23.486c0,2.057-1.027,3.082-3.082,3.082
			c-2.056,0-3.082-1.025-3.082-3.082v-55.479c0-2.014,1.026-3.021,3.082-3.021c2.055,0,3.082,1.008,3.082,3.021v23.609
			l25.952-25.768c0.617-0.617,1.315-0.924,2.096-0.924c0.821,0,1.55,0.318,2.188,0.955c0.637,0.637,0.956,1.367,0.956,2.188
			c0,0.781-0.308,1.48-0.925,2.096l-18.37,18.309l18.925,33.535C309.722,519.572,309.867,520.107,309.867,520.641z"/>
		<path fill="#FF0000" d="M327.928,523.6v15.412c0,2.055-1.027,3.082-3.082,3.082c-2.056,0-3.082-1.027-3.082-3.082v-55.48
			c0-2.055,1.026-3.082,3.082-3.082h15.411c3.411,0,6.318,1.203,8.723,3.605c2.404,2.404,3.606,5.313,3.606,8.723v18.494
			c0,3.412-1.202,6.318-3.606,8.723c-2.404,2.404-5.312,3.605-8.723,3.605H327.928z M327.928,517.436h12.329
			c1.685,0,3.133-0.605,4.346-1.818c1.212-1.211,1.818-2.66,1.818-4.346v-18.494c0-1.684-0.606-3.133-1.818-4.346
			c-1.212-1.211-2.661-1.818-4.346-1.818h-12.329V517.436z"/>
		<path fill="#FF0000" d="M392.592,519.531c-2.465,2.713-5.527,4.068-9.185,4.068h-6.165c-3.369,0-6.268-1.201-8.691-3.605
			c-2.425-2.404-3.637-5.311-3.637-8.723v-18.494c0-3.41,1.211-6.318,3.637-8.723c2.424-2.402,5.322-3.605,8.691-3.605h15.412
			c2.054,0,3.082,1.027,3.082,3.082v27.678c0,3.082,1.438,5.24,4.314,6.473c1.273,0.535,1.911,1.439,1.911,2.713
			c0,0.863-0.288,1.623-0.863,2.281s-1.294,0.986-2.157,0.986c-0.453,0-0.904-0.102-1.356-0.309
			C395.529,522.449,393.865,521.176,392.592,519.531z M389.571,511.271v-24.658h-12.329c-1.686,0-3.134,0.607-4.346,1.818
			c-1.213,1.213-1.818,2.662-1.818,4.346v18.494c0,1.686,0.605,3.135,1.818,4.346c1.212,1.213,2.66,1.818,4.346,1.818h6.165
			c1.685,0,3.134-0.605,4.346-1.818C388.965,514.406,389.571,512.957,389.571,511.271z"/>
		<path fill="#FF0000" d="M429.64,523.6h-9.247c-3.369,0-6.268-1.201-8.691-3.605c-2.426-2.404-3.637-5.311-3.637-8.723v-18.494
			c0-3.41,1.211-6.318,3.637-8.723c2.424-2.402,5.322-3.605,8.691-3.605h9.247c2.055,0,3.082,1.027,3.082,3.082
			c0,2.057-1.027,3.082-3.082,3.082h-9.247c-1.686,0-3.134,0.607-4.346,1.818c-1.213,1.213-1.818,2.662-1.818,4.346v18.494
			c0,1.686,0.605,3.135,1.818,4.346c1.212,1.213,2.66,1.818,4.346,1.818h9.247c2.055,0,3.082,1.027,3.082,3.082
			C432.722,522.574,431.694,523.6,429.64,523.6z"/>
		<path fill="#FF0000" d="M469.707,498.943v-15.412c0-2.055,1.027-3.082,3.082-3.082s3.082,1.027,3.082,3.082v36.986
			c0,2.057-1.027,3.082-3.082,3.082s-3.082-1.025-3.082-3.082v-15.41h-18.493v15.41c0,2.057-1.027,3.082-3.082,3.082
			c-2.056,0-3.082-1.025-3.082-3.082v-36.986c0-2.055,1.026-3.082,3.082-3.082c2.055,0,3.082,1.027,3.082,3.082v15.412H469.707z"/>
		<path fill="#FF0000" d="M494.364,498.943h6.165c3.903,0,6.985,1.293,9.246,3.883c2.055,2.303,3.082,5.117,3.082,8.445
			s-1.027,6.164-3.082,8.506c-2.261,2.549-5.343,3.822-9.246,3.822h-9.247c-2.056,0-3.082-1.025-3.082-3.082v-36.986
			c0-2.055,1.026-3.082,3.082-3.082c2.055,0,3.082,1.027,3.082,3.082V498.943z M494.364,505.107v12.328h6.165
			c1.931,0,3.472-0.637,4.623-1.91c1.026-1.15,1.541-2.568,1.541-4.254s-0.515-3.104-1.541-4.254
			c-1.151-1.273-2.692-1.91-4.623-1.91H494.364z M525.187,520.518c0,2.057-1.028,3.082-3.083,3.082s-3.082-1.025-3.082-3.082
			v-36.986c0-2.055,1.027-3.082,3.082-3.082s3.083,1.027,3.083,3.082V520.518z"/>
		<path fill="#FF0000" d="M543.68,505.107v6.164c0,1.686,0.605,3.135,1.818,4.346c1.212,1.213,2.66,1.818,4.346,1.818h15.411
			c2.055,0,3.082,1.027,3.082,3.082c0,2.057-1.027,3.082-3.082,3.082h-15.411c-3.411,0-6.318-1.201-8.723-3.605
			s-3.606-5.311-3.606-8.723v-18.494c0-3.41,1.202-6.318,3.606-8.723c2.404-2.402,5.312-3.605,8.723-3.605h6.164
			c3.411,0,6.318,1.203,8.723,3.605c2.404,2.404,3.606,5.313,3.606,8.723v9.248c0,2.055-1.027,3.082-3.082,3.082H543.68z
			 M543.68,498.943h18.493v-6.166c0-1.684-0.607-3.133-1.818-4.346c-1.213-1.211-2.662-1.818-4.347-1.818h-6.164
			c-1.686,0-3.134,0.607-4.346,1.818c-1.213,1.213-1.818,2.662-1.818,4.346V498.943z"/>
		<path fill="#FF0000" d="M328.052,573.443c-1.232,1.273-3.535,3.678-6.904,7.211v9.863c0,2.057-1.028,3.082-3.082,3.082
			c-2.056,0-3.083-1.025-3.083-3.082v-36.986c0-2.055,1.027-3.082,3.083-3.082c2.054,0,3.082,1.027,3.082,3.082v18.186
			l19.541-20.527c0.575-0.617,1.233-0.926,1.973-0.926c0.822,0,1.541,0.34,2.158,1.018c0.616,0.678,0.924,1.449,0.924,2.313
			s-0.329,1.623-0.986,2.281l-12.39,13.006l12.699,19.664c0.452,0.658,0.678,1.336,0.678,2.035c0,0.863-0.329,1.602-0.986,2.219
			c-0.658,0.617-1.377,0.924-2.157,0.924c-0.946,0-1.686-0.41-2.219-1.232L328.052,573.443z"/>
		<path fill="#FF0000" d="M389.572,580.039c0,3.781-1.325,6.986-3.977,9.615c-2.65,2.631-5.846,3.945-9.585,3.945h-3.698
			c-3.699,0-6.884-1.324-9.555-3.975c-2.672-2.652-4.007-5.846-4.007-9.586v-16.027c0-3.74,1.335-6.936,4.007-9.586
			c2.671-2.65,5.856-3.977,9.555-3.977h3.698c3.739,0,6.935,1.326,9.585,3.977c2.651,2.65,3.977,5.846,3.977,9.586V580.039z
			 M383.408,580.039v-16.027c0-2.014-0.73-3.75-2.188-5.209c-1.46-1.459-3.196-2.189-5.209-2.189h-3.698
			c-2.057,0-3.803,0.73-5.24,2.189c-1.439,1.459-2.158,3.195-2.158,5.209v16.027c0,2.055,0.719,3.801,2.158,5.238
			c1.438,1.439,3.184,2.158,5.24,2.158h3.698c2.013,0,3.749-0.719,5.209-2.158C382.678,583.84,383.408,582.094,383.408,580.039z"/>
		<path fill="#FF0000" d="M423.476,593.6h-9.247c-3.369,0-6.268-1.201-8.691-3.605c-2.426-2.404-3.637-5.311-3.637-8.723v-18.494
			c0-3.41,1.211-6.318,3.637-8.723c2.424-2.402,5.322-3.605,8.691-3.605h9.247c2.055,0,3.082,1.027,3.082,3.082
			c0,2.057-1.027,3.082-3.082,3.082h-9.247c-1.686,0-3.134,0.607-4.346,1.818c-1.213,1.213-1.818,2.662-1.818,4.346v18.494
			c0,1.686,0.605,3.135,1.818,4.346c1.212,1.213,2.66,1.818,4.346,1.818h9.247c2.055,0,3.082,1.027,3.082,3.082
			C426.558,592.574,425.53,593.6,423.476,593.6z"/>
		<path fill="#FF0000" d="M457.379,556.613H445.05v33.904c0,2.057-1.027,3.082-3.082,3.082c-2.056,0-3.082-1.025-3.082-3.082
			v-36.986c0-2.055,1.026-3.082,3.082-3.082h27.739c3.411,0,6.318,1.203,8.723,3.605c2.404,2.404,3.606,5.313,3.606,8.723v27.74
			c0,2.057-1.028,3.082-3.082,3.082c-2.056,0-3.082-1.025-3.082-3.082v-27.74c0-1.684-0.606-3.133-1.819-4.346
			c-1.212-1.211-2.66-1.818-4.346-1.818h-6.164v33.904c0,2.057-1.027,3.082-3.082,3.082c-2.056,0-3.082-1.025-3.082-3.082V556.613z"
			/>
		<path fill="#FF0000" d="M525.186,590.518c0,2.057-1.027,3.082-3.082,3.082h-15.41c-3.371,0-6.268-1.201-8.692-3.605
			s-3.637-5.311-3.637-8.723v-27.74c0-2.055,1.026-3.082,3.082-3.082c2.055,0,3.082,1.027,3.082,3.082v27.74
			c0,1.686,0.606,3.135,1.819,4.346c1.211,1.213,2.66,1.818,4.346,1.818h12.328v-33.904c0-2.055,1.027-3.082,3.082-3.082
			s3.082,1.027,3.082,3.082V590.518z"/>
	</g>
</g>
</svg>
